# xmcd
#
# Track frame offsets: 
#        150
#        16295
#        34179
#        51199
#        67558
#        83461
#        103031
#        121304
#        139650
#        155795
#
# Disc length: 2313 seconds
#
# Revision: 0
# Processed by: cddbd v1.5.2PL0 Copyright (c) Steve Scherf et al.
# Submitted via: ExactAudioCopyFreeDBPlugin 1.0
#
DISCID=7609070a
DTITLE=제이 - Superstar
DYEAR=2011
DGENRE=R&B
TTITLE0=SuperStar (Rock ver)
TTITLE1=행복한 사람
TTITLE2=넌 나의 태양 (feat 이주한 Of Winter Play)
TTITLE3=Love Part2
TTITLE4=SuperStar (feat 지기독) (R&B ver)
TTITLE5=사랑한다는 말 (duet 알렉스)
TTITLE6=Dream
TTITLE7=Dream (feat Supreme Team)
TTITLE8=SuperStar (Rock ver) (inst)
TTITLE9=행복한 사람 (inst)
EXTD=
EXTT0=
EXTT1=
EXTT2=
EXTT3=
EXTT4=
EXTT5=
EXTT6=
EXTT7=
EXTT8=
EXTT9=
PLAYORDER=
